/* XPM */
static char *_26de626dc3849fee0f7db664ca06a85SiEmSR4r4PpQpFfp[] = {
/* columns rows colors chars-per-pixel */
"16 16 16 1 ",
"  c None",
". c #161618",
"X c #1F142D",
"o c #4E1035",
"O c #1E413B",
"+ c #307A53",
"@ c #3CA03A",
"# c #80D35B",
"$ c #F3FF76",
"1 c #CA6A3D",
"2 c #CB7241",
"3 c #CD7542",
"4 c #D28A4C",
"5 c #D78D4D",
"6 c #D89D54",
"7 c #DEAC6B",
/* pixels */
"6563564764OO7656",
"6563574664O@O656",
"6661676672O@+XXX",
"636+++++76O+oooX",
"63+#####XXoooXX5",
"7+##$$###oooX265",
".##$$$###o@@@X62",
".##$#######@@@.6",
".###########@@.5",
".###########@@.2",
".@##########@@.7",
"7.@########@@@.7",
"7.@@@####@@@@.66",
"64.@@@@@@@@@.746",
"626..@@@@@..4626",
"22676.....642626"
};


"7662666676466766",
"6462464664264746",
"6266674666664626",
"2267672467642626"