/* XPM */
static char *_628a81021734cb58e36659052759980Y7AcB2q0kgKZ1QJD[] = {
/* columns rows colors chars-per-pixel */
"16 16 13 1 ",
". c black",
"X c #005800",
"o c #007800",
"O c #00B800",
"+ c #F8B800",
"@ c #F8D878",
"1 c #CA6A3D",
"2 c #CB7241",
"3 c #CD7542",
"4 c #D28A4C",
"5 c #D78D4D",
"6 c #D89D54",
"7 c #DEAC6B",
/* pixels */
"6563564764657656",
"6563........6656",
"666.ooOOOOoo.625",
"63.XoooOOoooX.66",
"63.X@@oOOo@@X.65",
"735.++@oO@++.265",
"765.++@oO@++.262",
 "6657.XooOoX.6566",
"26276.XoOX.64665",
"565..OOOOOO..662",
"6..OO.XoOX.OO..7",
".OO..2.oO.4..OO.",
"...266.oO.466...",
"646246.oO.264746",
"626667.oO.664626",
"226767.XO.642626"
};