/* XPM */
static char *a76f6bea0efa421bff5a92f80dcab294gaju9DoGSmoSAa4n[] = {
/* columns rows colors chars-per-pixel */
"16 16 7 1 ",
"1 c #CA6A3D",
"2 c #CB7241",
"3 c #CD7542",
"4 c #D28A4C",
"5 c #D78D4D",
"6 c #D89D54",
"7 c #DEAC6B",
/* pixels */
"6563564764657656",
"6563574664656656",
"6661676672666625",
"6366666476667666",
"6355746466647565",
"7356746246726265",
"7656627666766262",
"6657667674666566",
"2627667674664665",
"5656646642674662",
"6656646666672467",
"7664624676476667",
"7662666676466766",
"6462464664264746",
"6266674666664626",
"2267672467642626"
};
