/* XPM */
static char *_e6c8ed7f1af4a7e8015e8f76b4c859adUrVODnAsTPYfnhM[] = {
/* columns rows colors chars-per-pixel */
"16 16 13 1 ",
". c black",
"X c #503000",
"o c #881400",
"O c #AC7C00",
"+ c #F8B800",
"@ c #F8D878",
"1 c #CA6A3D",
"2 c #CB7241",
"3 c #CD7542",
"4 c #D28A4C",
"5 c #D78D4D",
"6 c #D89D54",
"7 c #DEAC6B",
/* pixels */
"6563564764657656",
"656357....656656",
"66616.@O@@.66625",
"636..@@+O@@.7666",
"635.O@@+@O@@.565",
"73.@@+O@@@OO@.65",
"7.O@+OO@@+@+@@.2",
"6.X+@@+@@+@X@O.6",
"26.X@XX@XX@XX.65",
"56.OXOX@OX@OO.62",
"66.OOOOXOOXOX.67",
"76.OOOX.XOOOO.67",
"76.OOOX.XOOOX.66",
"64.OOOXoXOOOO.46",
"62.OOOOXOOOOX.26",
"226..OOOOOO..626"
};
