/* XPM */
static char *c6a0f30bf3b54cb1f7d3fb3a264c2e59IYkUSLr5vKSpeH6K[] = {
/* columns rows colors chars-per-pixel */
"16 16 12 1 ",
"  c None",
". c black",
"X c #272736",
"o c #5A265E",
"O c #43434F",
"+ c #80366B",
"@ c #3CA370",
"# c #D1AD51",
"$ c #8FDE5D",
"% c #FFF97D",
"& c #C2C2D1",
"* c #FFFFEB",
/* pixels */
"                ",
"     ......     ",
"    .@$@@$$.    ",
"   .@$$$$$$@.   ",
"  .@$$$$$$$$$.  ",
"  .@$@$$$$$$$.  ",
"  .@@@$$@$$$$.  ",
"  .@@@@@#@@@$.  ",
"  .@@&.#%%&.@.  ",
"   .@*.%%%*.@.  ",
"   ..#%%%%%#..  ",
"  .%ooo+**o.oo. ",
"  .#.o++**++%#. ",
"  .#.o++**+.%%. ",
"   ..XXXXXX...  ",
"    .OX...O.    "
};
