/* XPM */
static char *dd1c4720217b4d94e5e2b3fe07c13dc2LLNsyGM3eWDLFAih[] = {
/* columns rows colors chars-per-pixel */
"16 16 12 1 ",
"  c None",
". c black",
"X c #272736",
"o c #5A265E",
"O c #43434F",
"+ c #80366B",
"@ c #3CA370",
"# c #D1AD51",
"$ c #8FDE5D",
"% c #FFF97D",
"& c #C2C2D1",
"* c #FFFFEB",
/* pixels */
"     ......     ",
"    .@$@@$$.    ",
"   .@$$$$$$@.   ",
"  .@$$$$$$$$$.  ",
"  .@$@$$$$$$$.  ",
"  .@@@$$@$$$$.  ",
"  .@@@@@#@@@$.  ",
"  .@@&.#%%&.@.  ",
"   .@*.%%%*.@.  ",
"    .#%%%%%#.   ",
"   .o.oo**o.    ",
"  .+ooo+**o..   ",
"  .%#.o+**+.#.  ",
"  .%%.XXXXX.#.  ",
"   ...X...X..   ",
"     .O..O.     "
};
