/* XPM */
static char *ab0e85c235ca4b4c8e2bbdd556a97ff0DZH597FYP8a2tHCg[] = {
/* columns rows colors chars-per-pixel */
"16 16 4 1 ",
"  c #0588C8",
". c #0099DB",
"X c #25A5E3",
"o c #48B4E8",
/* pixels */
"X. XoXXoX.XoX .X",
".  oX.oX. .Xo  .",
"   X. X.   .X   ",
"  ..  .     ..  ",
" .X      .   X. ",
".Xo  .  .X.  oX.",
"Xoo .X .XoX. ooX",
"ooo.Xo.XoooX.ooo",
"ooXXooXooXooXXoo",
"oX.ooXooXXXoo.Xo",
"X. oXXoXX.XXo .X",
". .XX.XX. .XX. .",
" .XX. X. . .XX. ",
".Xo. .. .X. .oX.",
"Xoo .X .XoX. ooX",
"ooX.Xo.XoooX.Xoo"
};
