/* XPM */
static char *_7de22a289df47f58a735af8e924a518N0NwBTe3E3DXhKun[] = {
/* columns rows colors chars-per-pixel */
"32 32 10 1 ",
"  c #9CDB43",
". c #D6F264",
"! c #1E1208",
"X c #3D2715",
"o c #56381E",
"O c #6C4C31",
"+ c #8F5C10",
"@ c #DB8D18",
"# c #F9A31B",
"$ c #FFD541",
/* pixels */
"                                ",
"                                ",
"  !!!!!                     !!!!",
" !####!!!!!!!!!!!!!!!!!!!!!!!###",
"!####XooooOOOOOOOOoOOoOOOooooX##",
"!$$$XooOOOOOoOooOOOOOOOOOOOOOoX$",
"$$$$XooooOOOOOOOOOOOOOooOoOOooX$",
"$$$XOOOOOOOOOOOOOOOOOOOOOOOOOOOX",
"$$#XoooOOOOOOOOOOoooOOOOOOOOOooX",
"###XoOOOOOOOOOOOOOOOOOOOOOOOOOOX",
"###XooOOOOooOOOOOOOOOOOOooOOOooX",
"###XoooOOOOOOOooOOOooOoOOOOOOOoX",
"###XoOOOOOOOOOOOOOOOOOOOOOOOOOoX",
"###XXXoooOOOOOOOOOOOOOOOooOOOOoX",
"###XooOOOOoooOOOOOOOOOOOOOOOoooX",
"##@XXooOOOOOOOoooooooOOooOoooXXX",
"##@Xooooooooooo$$$$$ooooooooooXX",
"@@@@XXoooooooo$$###$$ooooooooXX@",
"@@@@@@@@@@@@@@$#!!!#$@@@@@@@@@@@",
"!++XXXXXXXXXXX$@@!@@$XXXXXXXXXXX",
"+++XXooooooooX$$@@@$$XooooooooXX",
"$$$XooOOOOOOOoX$$$$$XoOOoooOOooX",
"$$#XoOOOOOOooooXXXXXoOOOOOOOOOoX",
"###XooooOOOOOOOoooooOOoooOOOOooX",
"###XoooOOOOooOOOOOOOOOOOOOoooooX",
"###XXXooooooooooooooooooooooooXX",
"@@#XXXXXoooXXooXXXXXXXooXXXXXXXX",
"@@@@XXXXXXXXXXXXXXXXXXXXXXXXXXX@",
"!@@@@!!!!!!!!!!!!!!!!!!!!!!!!!@@",
" !!!!!                       !!!",
"                                ",
"                                "
};
