/* XPM */
static char *result[] = {
/* columns rows colors chars-per-pixel */
"31 32 14 1 ",
"  c #3C1431",
". c #582A45",
"X c #AA3432",
"o c #DC9977",
"O c #192294",
"+ c #1C31AE",
"@ c #3250D3",
"# c #3E68F8",
"$ c #5F82F7",
"% c #FCD4BD",
"& c #D6B0D0",
"* c #F9E6F6",
"= c #FFEFF6",
"- c #9CDB43",
/* pixels */
"-------------------------------",
"-------------------------------",
"-------------@@@@@-------------",
"-----------@@#$###@@-----------",
"----------@#####$###@-OOOO-----",
"---------@###$#####==O++++O----",
"--------@@@@@###===OO++++++O---",
"------------@===##@ooo+++OO----",
"--------@@@@#####@&%&&oOO------",
"-------@#######@@=&%&==o-------",
"--------@@@@@@@%= %%% =o-------",
"------------&o%% .%XX. o-------",
"-------------&%%%%%XX%%o-------",
"-------------&&%%&&XX&&&-------",
"-------------&=&&====*=&-------",
"-------------&=*==*==*=&-------",
"------------@#&*==*=*=&--------",
"-----------@##&=*====*=&-------",
"-----------@###&*==*=*=&-------",
"-----------@##$#&=*==&&--------",
"----------@$####&=*=*&@--------",
"----------@######&*&*&@--------",
"----------@#####$#&#&#@--------",
"----------@##$#$$$#####@-------",
"----------@#####$#####$@-------",
"---------@@########$###@-------",
"------@-@#####$#########@------",
"-----@#@################@------",
"------@@@@@@@@@@@@@@@@@@-------",
"-------------------------------",
"-------------------------------",
"-------------------------------"
};
