/* XPM */
static char *_98d48d42e2644ad87fea4d0bc06ec08A2AYoba7xwEzyp5M[] = {
/* columns rows colors chars-per-pixel */
"32 32 189 2 ",
"   c #200000",
".  c #360000",
"X  c #3B0000",
"o  c #430000",
"O  c #490000",
"+  c #582D0A",
"@  c #5E3412",
"#  c #613614",
"$  c #643A1C",
"%  c #653D24",
"&  c #663F28",
"*  c #6B4300",
"=  c #6F4800",
"-  c #6E481E",
";  c #684726",
":  c #67432D",
">  c #68432C",
",  c #6B4731",
"<  c #6D4933",
"1  c #63483C",
"2  c #6D4C3B",
"3  c #704F3D",
"4  c #71503E",
"5  c #785239",
"6  c #674C40",
"7  c #6C4E42",
"8  c #6D5144",
"9  c #725241",
"0  c #775A4C",
"q  c #6C5953",
"w  c #725E57",
"e  c #7A6557",
"r  c #75635B",
"t  c #584D6D",
"y  c #645665",
"u  c #5A6075",
"i  c #6A6D6B",
"p  c #796A66",
"a  c #7A6E6B",
"s  c #7C726F",
"d  c #676C78",
"f  c #7F7572",
"g  c #787A7F",
"h  c #825C41",
"j  c #987A68",
"k  c #817774",
"l  c #867B78",
"z  c #83827D",
"x  c #A08371",
"c  c #000086",
"v  c #000090",
"b  c #0000A9",
"n  c #002CAC",
"m  c #0030A7",
"M  c #0034AC",
"N  c #002BB2",
"B  c #0033B2",
"V  c #003AB6",
"C  c #003CBA",
"Z  c #094396",
"A  c #2B4F9A",
"S  c #0045A1",
"D  c #1649A7",
"F  c #1950AE",
"G  c #0040B7",
"H  c #0041BC",
"J  c #0651B7",
"K  c #0D50B4",
"L  c #0351BC",
"P  c #0C53BD",
"I  c #1953B7",
"U  c #234FA3",
"Y  c #284EA5",
"T  c #2E58AE",
"R  c #3056A5",
"E  c #3258AA",
"W  c #2558B9",
"Q  c #345CB4",
"!  c #3A5FB5",
"~  c #365FBA",
"^  c #385FBA",
"/  c #3760BD",
"(  c #3A61BD",
")  c #524F82",
"_  c #565383",
"`  c #465990",
"'  c #4B5D9A",
"]  c #746F8C",
"[  c #777986",
"{  c #777898",
"}  c #445CA5",
"|  c #4D63A5",
" . c #4D64A9",
".. c #5266A7",
"X. c #5167AD",
"o. c #556AAC",
"O. c #4366BD",
"+. c #4866BD",
"@. c #5A6FB6",
"#. c #6672A8",
"$. c #767DA5",
"%. c #6C7AB3",
"&. c #6678B8",
"*. c #727FB3",
"=. c #0C56C5",
"-. c #1A57C1",
";. c #1E58C1",
":. c #235AC2",
">. c #2A5EC6",
",. c #3761C0",
"<. c #3A63C2",
"1. c #3C66C9",
"2. c #2861D2",
"3. c #3A6AD7",
"4. c #3D6AD4",
"5. c #4166C2",
"6. c #4669C2",
"7. c #4D6DC1",
"8. c #486ECD",
"9. c #516FC5",
"0. c #4D70CD",
"q. c #5772C6",
"w. c #416DD6",
"e. c #416DD9",
"r. c #4E74D6",
"t. c #5A7FD8",
"y. c #4977E2",
"u. c #517EE6",
"i. c #7F8085",
"p. c #7D849B",
"a. c #7886B8",
"s. c #7585C3",
"d. c #7689C5",
"f. c #7B8AC5",
"g. c #6389E7",
"h. c #848282",
"j. c #8A8585",
"k. c #8A8885",
"l. c #81838A",
"z. c #8D8B89",
"x. c #938F87",
"c. c #928E8C",
"v. c #989589",
"b. c #888896",
"n. c #8F929F",
"m. c #959495",
"M. c #9D9B93",
"N. c #93949B",
"B. c #9D9B9C",
"V. c #A09D94",
"C. c #A49C9A",
"Z. c #A3A493",
"A. c #A3A29B",
"S. c #8389A8",
"D. c #989AA3",
"F. c #8793B8",
"G. c #949AB5",
"H. c #999EB4",
"J. c #989EB9",
"K. c #9DA5AE",
"L. c #9DA2BB",
"P. c #A4A4A4",
"I. c #ACABA4",
"U. c #A7A8A8",
"Y. c #ABABAB",
"T. c #B2AEAD",
"R. c #B4B2A9",
"E. c #AEAFB0",
"W. c #A3AABB",
"Q. c #AFB0B1",
"!. c #B1B2B3",
"~. c #B4B9B9",
"^. c #C1BDBC",
"/. c #C1CABD",
"(. c #ACB0C4",
"). c #BBBCC6",
"_. c #BBBEC8",
"`. c #C7C7CA",
"'. c #D8D6D5",
"]. c #EBEBE6",
"[. c #F0EFED",
"{. c #F2F1EC",
"}. c #F2F2F2",
"|. c #FCFBF6",
" X c #FEFDF6",
".X c #FFFEFA",
"XX c #9CDB43",
"oX c #FDFDFD",
"OX c #9CDB43",
/* pixels */
"OXOXOXOXOXOXOXOXOXOXOXOXOXOXOX`.!.[.OXXXOXOXOXOXOXOXOXOXOXOXOXOX",
"OXOXOXOXOXOXOXOXOXOXOXXXOX.X(.M N F.{.OXXXOXOXOXOXOXOXOXOXOXOXOX",
"OXOXOXOXOXOXOXOXOXOXXXOX.XW.V ( O.C F.[.OXXXOXOXOXOXOXOXOXOXOXOX",
"OXOXOXOXOXOXOXOXOXXXOX.XL.V 5.O.5.6.B a.{.OXXXOXOXOXOXOXOXOXOXOX",
"OXOXOXOXOXOXOXOXXXOX.XL.C O.5.T Q ( +.G a.[.OXOXOXOXOXOXOXOXOXOX",
"OXOXOXOXOXOXOXXXOX.XH.C 5.<.~ <.<./ <.6.G *.].OXXXOXOXOX.XOX.XOX",
"OXOXOXOXOXOXOXOX|.G.H O.5.~ ^ Q E <.~ ( 6.G %.].OXXXOXOXOXOXOXOX",
"OX X X X X X.X{.G.C 6.<.Q <.^ 1.1.~ ~ / ( +.G %.]..X|. X X X|.OX",
"`.@.f.a.d.d.s.&.=.( ( <.<.Q <.Q R <./ ( <.( <.L 9.a.a.d.s.f.@.(.",
").b W L P J J I Q 1.Q <.,.<.~ 1.1.( ( <./ ( <.Q W L P J L ,.b G.",
"_.M 6.<.( ( <.( 1.Q <.^ <.^ <.E R ,.~ ~ ( ( ~ ~ ( ( <.( ^ 9.B J.",
"_.B 6.^ <.( ( / ~ <.^ <.! <.! w.4.( / <./ ~ <.( ~ ~ ^ <.~ 9.B J.",
").M 6./ ( / <.( 1.Q ,.^ ^ ^ e.W U e.( / <.<.<.~ <.~ <.<.~ 6.B J.",
"_.M +./ <.( ( / ^ <.^ <.<.4.I d [ S w.( ^ ~ ~ Q ~ <.~ ^ ,.9.N J.",
"_.m 6.( / ( / / <.<.,.^ e.K d Y.R.[ U 3.5.~ ( ^ ~ ~ ^ ^ ~ 7.B J.",
"_.B 6./ <.( / ( ~ ~ ^ e.F d Y.Y.Y.Q.z.A 3.<.~ <.~ ~ ,.,.~ 9.B H.",
"_.M +.( ( ( ( <.( ( 4.F u N.P.B.B.B.D.[ Z w.6.Q ,.~ ~ <.~ 7.B J.",
"_.m 6.( ( <.O.( O.4.I [ b.Y S.M.z K.D b.z D 3.6.( <.O.( <.9.n H.",
"_.V 8.:.:.I I >.2.F [ R.N.B F.M.z W.B $.R.l.Z 2.>.W -.:.;.0.C J.",
").c }  .X.o.X. .' [ Q.Y.N.' D.Z.v.U.' p.I.T.i.` ....o.X.| ..v H.",
"/.. ; M.A.x.M.A.z.U.Y.U.P.m.b.] ] { m.Y.U.Y.U.c.M.Z.x.M.C.e   C.",
"^.O p Y.B.h.N.Y.k.P.Y.Y.I.S.8.a.F.q.%.Z.Y.U.U.c.P.P.[ m.E.j.X C.",
"^.o w P.c.i k.P.z P.Y.Y.A.#.8.~./.&.+.M.E.Y.U.j.C.m.i k.U.l . C.",
"^.o r P.Y.k.P.Y.h.P.Y.Y.I.$.r.d.a.g.&.M.Y.Y.Y.z.C.Y.z.A.Y.l X C.",
"^.O w Y.!.Y.!.Y.j.P.Y.Y.A.$.u.u.y.t.%.C.Y.U.U.j.P.!.Y.!.E.l X C.",
"~.O 8 a f f f s a Y.E.E.U.$.y.g.g.u.@.V.!.Y.Q.z.p f f f f r o C.",
"^.O 0 $ @ $ $ # 1 a a a p y ) _ t ` t r k p a q @ $ $ @ # 0 O C.",
"^.O 0 4 2 3 3 9 < % > & % ; = * # * - > % > ; : 2 8 4 3 < e O C.",
"^.O 9 , > < < < , , < , : < < 2 < < 2 < , < < < , < < : : 0 O C.",
"^.o 0 2 7 7 7 8 6 6 9 7 8 9 9 8 5 4 9 8 8 8 8 7 2 7 7 7 7 e o C.",
"XX[.}.}.}.}.{.}.}.}.}.|.`.5 x j j x h T.}.}.[.[.}.}.}.}.}.}.[.}.",
"OXOXOXOXOXOXOXOXOXOXXXXX{.k + 8 7 @ 1 '.OXOXOXOXOXOXOXOXOXOXOXOX"
};
