/* XPM */
static char *e7e00a1ae1d944f784873311999e4508inbZaIvcT7BufvPr[] = {
/* columns rows colors chars-per-pixel */
"32 32 6 1 ",
"  c #9CDB43",
". c #265C42",
"X c #BE4A2F",
"o c #F77622",
"O c #3E8948",
"+ c #FEAE34",
/* pixels */
"                                ",
"               O O              ",
"             .OO.O.O            ",
"             .OO.O.O            ",
"             ..O...O            ",
"              .O..OO            ",
"              .OO.O             ",
"               .O.              ",
"               .O.              ",
"               ...              ",
"             XXXoooo            ",
"            XXoX+Xooo           ",
"            XXXo+oooo           ",
"            XXooooooo           ",
"            XXXoo++oo           ",
"            XXooooooo           ",
"            XXXo+oooX           ",
"            XXoo+ooXo           ",
"            XXooooooo           ",
"            XXooooooo           ",
"             XXXo+oo            ",
"             Xooo+Xo            ",
"             XXooooo            ",
"             XXooooo            ",
"              XX+oo             ",
"              Xoooo             ",
"              XXooo             ",
"               XXo              ",
"               Xoo              ",
"                X               ",
"                                ",
"                                "
};
