/* XPM */
static char *b32ac9b8b7384763a2cc3e397ee63002ivPJLROuufPR5I1P[] = {
/* columns rows colors chars-per-pixel */
"32 32 6 1 ",
"= c #9CDB43",
"J c #BEBEBE",
"I c #808080",
"1 c #FFEEFF",
"2 c #EEFFFF",
"3 c #FFFFEE",
/* pixels */
"================================",
"===============II===============",
"============IIIIIII=============",
"=========IIIIIIIIIIIII==========",
"=======IIIIIIIIIIIIIIIII========",
"==========IIIIIIIIII============",
"=======JJIIIIIIIIIIIII==========",
"=====JJJIIIIIIIIIIIIIIIII=======",
"======JJJIIIIIIIIIIIIIIIIII=====",
"====JJJJJJJIIIIIIIIIIIIIIIIII===",
"====JJJJJJJJJIIIIIIIIIIIIIIII===",
"==JJJJJJJJJIIIIIIIIIIIIIIIII====",
"JJJJJJJJJJIIIIIIIIIIIIIIII======",
"JJJJJJJJJIIIIIIIIIIIIIIIIIII====",
"==JJJJJJJJJIIIIIIIIIIIIIIIIII===",
"JJJJJJJJJJJJJJIIIIIIIIIIIIIIII==",
"JJJJJJJJJJJJJJJJIIIIIIIIIIII====",
"==JJJJJJJJJJJJJJJJIIIIIIII======",
"================================",
"================================",
"================================",
"====1===========================",
"===1===1=====1=22=====1===22====",
"====1=22=22=1=333=1==22==333====",
"====1=22=333=1===22==22=22======",
"====1=1=1=22====3333====1=======",
"=====3333====1==22==1===========",
"======333====22==1==22==========",
"=======22====333====1===========",
"========333==22=====1===========",
"==========22==1=================",
"===========1=======22==========="
};
