/* XPM */
static char *b32ac9b8b7384763a2cc3e397ee63002ivPJLROuufPR5I1P[] = {
/* columns rows colors chars-per-pixel */
"32 32 89 1 ",
"  c #270000",
". c #2C0003",
"X c #2D000B",
"o c #2C0010",
"O c #2C0E20",
"+ c #2B1220",
"@ c #2F1229",
"# c #32192A",
"$ c #331C31",
"% c #24252E",
"& c #2A242F",
"* c #31232F",
"= c #30282E",
"- c #2C2530",
"; c #2C2C35",
": c #2E2E38",
"> c #312633",
", c #322B35",
"< c #342D39",
"1 c #2E3037",
"2 c #2F3139",
"3 c #35363E",
"4 c #36383F",
"5 c #3D393F",
"6 c #363741",
"7 c #383741",
"8 c #363941",
"9 c #3A3C44",
"0 c #3E3E48",
"q c #394247",
"w c #3B434B",
"e c #3C4A4C",
"r c #3E4C53",
"t c #3D5254",
"y c #3D5058",
"u c #3F5B5D",
"i c #44444D",
"p c #47484F",
"a c #474751",
"s c #474851",
"d c #4B4B54",
"f c #425256",
"g c #42565B",
"h c #43595A",
"j c #52535B",
"k c #415E63",
"l c #5C5D66",
"z c #5E5E69",
"x c #4A6666",
"c c #486368",
"v c #476A6E",
"b c #5F6068",
"n c #4E6771",
"m c #466C70",
"M c #4B6E70",
"N c #516F74",
"B c #4B7075",
"V c #4D7279",
"C c #4D7779",
"Z c #4A7A7D",
"A c #537172",
"S c #527177",
"D c #51727A",
"F c #62636C",
"G c #64646F",
"H c #656671",
"J c #686872",
"K c #6A6B75",
"L c #6C6D77",
"P c #6F6F7B",
"I c #70707B",
"U c #72727D",
"Y c #73747E",
"T c #74747F",
"R c #4C7C82",
"E c #737380",
"W c #747382",
"Q c #757581",
"! c #777784",
"~ c #777883",
"^ c #797A83",
"/ c #7A7A86",
"( c #4E8183",
") c #528887",
"_ c #569295",
"` c #5EA5A9",
"' c #5DA8A9",
"] c #5FAAAE",
"[ c #60ABAC",
/* pixels */
"33333333333333333333333333333333",
"33333333333333333333333333333333",
"33333333333333323333333333333333",
"33333333333323is0:33333333333333",
"33333333333:aKQQYF93333333333333",
"33333333382dQ/QQ~/Ijsi3333333333",
"33333333329U!EQQQU~Ldji:33333333",
"3333333:3:l/QQQQQQQQlsj9:3333333",
"3333332dHHUQQQQQQQQ!Jidp;3333333",
"33333:jQ//!QQQQQQQQ!Ujds32333333",
"333739UQUEQQQQQQQQQQQTHdsi333333",
"3338%j!W!QQQQQQQQQQQQQ/Fij9;3333",
"3333:z/!!QQQQQQQQQQQQQQYjdi83333",
"332jHPQQQQQQQQQQQQQQQQQQIKjds333",
"7;dQ/!QQQQQQQQQQQQQQQQQQ//Ijdw:3",
"3;J/EQQQQQQQQQQQQQQQQQQQQQ^lsi:3",
"33PQQQQQQQQQQQQQQQQQQQQQQQ~Gdi;3",
"32KQEQQQQQQQQQQQQQQQQQQQQE/Gi733",
"7;j/~QQQQQQQQQQQQQQQQ!!!Q/Qs3333",
"333bUUUUUUUUUUUUUUUUUUUUUPj;3333",
"3333iiiiiiiiiiiiiiiiiiiii0:33333",
"3333;&1:;:;1;-1:;-2:1:;213933333",
"3333wt39w7h6qe38we38<wh<3wf33333",
"33339e=rN<w9we,<we,6f78f93933333",
"3333339cN36#>3er3O_m,9*Mue<73333",
"3333333gSt3Ck@qq3X'Z.7>By3433333",
"333337,rn7o`R#7wx ]R.h3Vr,733333",
"3333333667X[(5qrD+vy>e3gw3333333",
"3333333337#)v$,fD>,3733334333333",
"33333333333,<7>fA-73333333333333",
"3333333333333337w333333333333333",
"33333333333333333333333333333333"
};
