/* XPM */
static char *_1b56ba6e73549f3d0da8d48d4240b1coLIDXflWYRpg2N7I[] = {
/* columns rows colors chars-per-pixel */
"32 32 87 1 ",
"  c #2A0000",
". c #2C0013",
"X c #2D011A",
"o c #2F0E22",
"O c #2C1526",
"+ c #331826",
"@ c #321D2F",
"# c #2B262E",
"$ c #31212D",
"% c #262730",
"& c #272832",
"* c #2C2D35",
"= c #2E2F38",
"- c #322533",
"; c #332B34",
": c #342E3A",
"> c #2F3036",
", c #2F3139",
"< c #35363E",
"1 c #38363F",
"2 c #36383F",
"3 c #383A3F",
"4 c #363741",
"5 c #373A42",
"6 c #393C43",
"7 c #373E48",
"8 c #3A4145",
"9 c #3B454B",
"0 c #3C4A4D",
"q c #3C4C52",
"w c #3D5054",
"e c #3F535A",
"r c #44454D",
"t c #47484F",
"y c #464750",
"u c #444A51",
"i c #4B4B54",
"p c #4F4F59",
"a c #425459",
"s c #53535D",
"d c #565660",
"f c #585862",
"g c #5A5B64",
"h c #5D5D67",
"j c #5E5E67",
"k c #5E5E69",
"l c #436663",
"z c #416366",
"x c #44676C",
"c c #486D6E",
"v c #466F75",
"b c #477173",
"n c #4C7276",
"m c #4F7677",
"M c #4C747A",
"N c #4D757B",
"B c #4C7D7E",
"V c #61616B",
"C c #64646E",
"Z c #676871",
"A c #686973",
"S c #696A74",
"D c #696976",
"F c #6D6D79",
"G c #72727B",
"H c #72737E",
"J c #74747E",
"K c #75767F",
"L c #4B7B82",
"P c #747480",
"I c #747481",
"U c #767681",
"Y c #757583",
"T c #757584",
"R c #777882",
"E c #797983",
"W c #787885",
"Q c #787985",
"! c #4E8486",
"~ c #528B8C",
"^ c #569597",
"/ c #57989C",
"( c #589DA3",
") c #5DA3A6",
"_ c #63ABAC",
"` c #64B2B7",
"' c #65B6BA",
/* pixels */
"<<<<2<<4<<<<<<<<<<<<<<<<<<<<2<<5",
"<<<<<<<<<<<<<<244<<2<<<<<<<<<<<<",
"<2<<<<<2<<<<<<****42<<<<<<<<<<<<",
"<<<4<<<<<<<<=rfjdr*<<<<<<<<24<<<",
"<<<<4<<<<1<<kYWWTYkrr<<<2<<<<<<<",
"<2<<<22444<jQPJKKYEZii6><<<2<2<<",
"4<<<<<4<*%iYJPPYYKPYfyp3,<<<<<<2",
"<<<<<3=6jkDWPTKYYYPYArit*<4<<4<<",
"<<<<3;yGEQYYKPYYYYYEKsri4,6<<<<<",
"2<<4<<FQKYKYYYYYYKYUYYDirr;<<<<2",
"<<25*tKYYYYYYYYYKYYUYKEAup8&<<<<",
"<<<<5sYYYKYYYPKYYYYYYYYYgpyr5<<<",
"<<<gHHKYYYKPYYYYKYYYYYYPKKVip<><",
"3*pQEKJYYYYYYYPKYYKYYPYKYYEgir*<",
"1&CQKYYYYYYYYYYYKYKYYKYYKYYCyt*<",
"4&CEHTYYYKYKKPYYJYYYYYYYHKEAi6,<",
"<&sEYYYYKYYYYYYYYYYKYYYYYYYs5<<<",
"<<<jKKRYKKKYKKKYYYKYYRKKYKg*<<<<",
"<<<,rryyrtrrttrtyytrrrrtt8,<<<<<",
"<<<<>**,<>=*=,,**O>:*,,#<<36<<<<",
"<<<<4e<qb:<t8<42aM;2w65a:<8u<<<<",
"2<<<<0-qL;<94<86v_.29<0m<0<4<<<<",
"<4<<<<-wB;><<<4ob_X7>;0M<0<<11<<",
"<<<222:9l90><<<=qc7e<2qn-424<<<<",
"<<<<<<<<;749999<<$45<007<<<<<<<<",
"2<<2<2<<<7 ^~+9<31<<;<<<<<4<<2<<",
"<<4<2<4<<8 (/ 85<994q<2<<<2<<<4<",
"<<<<<<<<26.!!X5@<91z)X5<<<<<<<2<",
"4<2<<<<<<24:<;8~5<Xv` 7<4<<<<<<4",
"<<<<<42<<<<<5#w'6<;a^O42<<<<2<<<",
"<<<<<4<<<<<<6$w`7:41<<<<<2<2<<<<",
"2<<2<<<<<<<<<<7x<<<<<<2<<<<<4<<2"
};
