/* XPM */
static char *_0a97934ac8246d09103001930984846TkqhgaSpttu8wX7u[] = {
/* columns rows colors chars-per-pixel */
"32 32 77 1 ",
"  c #2F1825",
". c #311E2A",
"X c #31232E",
"o c #2F2532",
"O c #272832",
"+ c #2C2D35",
"@ c #2E2F38",
"# c #322431",
"$ c #322B35",
"% c #332E39",
"& c #2F3038",
"* c #333036",
"= c #35363E",
"- c #36383F",
"; c #363640",
": c #373A42",
"> c #393B43",
", c #394146",
"< c #3A444B",
"1 c #3C494E",
"2 c #3B4751",
"3 c #3D4B53",
"4 c #3F4F59",
"5 c #3F5256",
"6 c #3E535A",
"7 c #44454D",
"8 c #464650",
"9 c #444A52",
"0 c #4A4B54",
"q c #4F4F58",
"w c #415155",
"e c #41565A",
"r c #4F5058",
"t c #51515B",
"y c #575761",
"u c #575861",
"i c #595A63",
"p c #5A5A64",
"a c #5C5C66",
"s c #5E5E69",
"d c #446467",
"f c #4B6267",
"g c #46676C",
"h c #46686B",
"j c #48696F",
"k c #5F606B",
"l c #4F6F72",
"z c #4C7176",
"x c #4D777F",
"c c #4D7A7A",
"v c #4F797D",
"b c #4F7C7E",
"n c #527579",
"m c #54737C",
"M c #53787E",
"N c #577A7F",
"B c #60616B",
"V c #65656F",
"C c #666770",
"Z c #696973",
"A c #6B6B75",
"S c #6B6C76",
"D c #6C6C76",
"F c #6C6C77",
"G c #6E6E7B",
"H c #70717B",
"J c #72727D",
"K c #73747F",
"L c #74747F",
"P c #737380",
"I c #777781",
"U c #747482",
"Y c #757483",
"T c #777785",
"R c #777882",
"E c #787983",
"W c #7A7A85",
/* pixels */
"================================",
"=============@=:=+==============",
"============;iAHGp;@============",
"=========:=>AWIIEWFq77==========",
"=======:==&CWPLLIKWG007&========",
"=======@=+0WLIIIIIPWs7r>&=======",
"=====:@7kBFTIIIIIIIIG700@=======",
"=====&0JWWIIIIIIIIIIJu80:@======",
"======SWPPPIIIIIIIIIIJZq07======",
"===:+0IIIIIIIIIIIIIIIIWZ0t7O====",
"====OtTIIIIIIIIIIIIIIPPIy08>====",
"==@tAGPIIIIIIIIIIIIIIIIIHGa00:==",
":@7ITIPIIIIIIIIIIIIIIIIIIWIy07@=",
":OBWPIIIIIIIIIIIIIIIIIIIIIWC80@=",
"=+VTIIIIIIIIIIIIIIIIIIIIIIRS07@=",
":OBWIIPIIPIIIIIIIIIIIIIIIIWA8:==",
":@7IERIRIIIIIITIIITTTTTTIWI0====",
"==&0SFSFFFFFFFGFFGGFFFFFGA0+====",
"====&=====================@=====",
"===:===%=====;=>-=====*===>:====",
"====:=>e=>:=:=%z<=:==:1==%6<====",
"====1,<b.42=->=v3%:9=,m=,:======",
"====,-2x#>:-=5:c2$:3%<M;9>======",
"=====$2v$====>=h<=:=%<N:========",
"======>e=:%56$;=w>$>=>f=========",
"=======X<4 hjX>=>>,;w===========",
"========><.hg#w>#2l%,===========",
"==========Xdgo>-$4n$============",
"=========:=<<==-$3n$============",
"=============;==%<f=============",
"===================;============",
"================================"
};
