/* XPM */
static char *baf9d882e57e44d581cc620a00ca9ad72Y5VSxfzpNsWa2hw[] = {
/* columns rows colors chars-per-pixel */
"32 32 92 1 ",
"  c #250000",
". c #2B0002",
"X c #2B000C",
"o c #2D0014",
"O c #2D011C",
"+ c #2B0E1F",
"@ c #2D101C",
"# c #32101D",
"$ c #2E1223",
"% c #2C1F2B",
"& c #311C29",
"* c #21232C",
"= c #2D222D",
"- c #31222E",
"; c #3A272D",
": c #2D2D36",
"> c #2E2F38",
", c #322534",
"< c #332C35",
"1 c #332C39",
"2 c #382D39",
"3 c #2F3037",
"4 c #2F3039",
"5 c #333136",
"6 c #35353E",
"7 c #36383F",
"8 c #353640",
"9 c #373A41",
"0 c #3A3C44",
"q c #3C3F48",
"w c #394147",
"e c #374249",
"r c #3A434B",
"t c #3D494F",
"y c #3C4B52",
"u c #3F5052",
"i c #3D565A",
"p c #45454E",
"a c #474751",
"s c #474850",
"d c #4A4B54",
"f c #4E4F58",
"g c #40555B",
"h c #4F5058",
"j c #425A5D",
"k c #52535C",
"l c #435B63",
"z c #5A5B64",
"x c #47656B",
"c c #44696E",
"v c #456C71",
"b c #477075",
"n c #4A7376",
"m c #4E7C7F",
"M c #63636D",
"N c #676771",
"B c #6C6D76",
"V c #6D6E78",
"C c #6D6E79",
"Z c #70717B",
"A c #71727C",
"S c #73737E",
"D c #73747E",
"F c #74757F",
"G c #737380",
"H c #747481",
"J c #747483",
"K c #767783",
"L c #777783",
"P c #777784",
"I c #767881",
"U c #787983",
"Y c #787984",
"T c #797985",
"R c #4F8083",
"E c #508587",
"W c #52848A",
"Q c #52878A",
"! c #528B8D",
"~ c #548A8C",
"^ c #558E90",
"/ c #578D98",
"( c #599A9B",
") c #5A999C",
"_ c #5B9C9D",
"` c #5EA2A4",
"' c #5FAAAA",
"] c #60A5A7",
"[ c #63ADAF",
"{ c #63B2B5",
"} c #66B6B8",
"| c #68BDBC",
/* pixels */
"66766667866668667666666766766686",
"66668666669666668066666666686667",
"666667686666065>4676666678666666",
"678666666669:60pq1>6666666668676",
"66666676666:pMASANp6066676866766",
"78668666795fLTLLITDzsp6666666668",
"666666991:qALJJSDAKHkdd666768666",
"6666666:p0MLJJJSKKJKNshp:6666676",
"8766667MSASKJSPLKSJLAdsf6:666666",
"666971NTPPJKLKJJLLJSJNzdp7566686",
"6660:fKJGKKKLSSJSJLJSLLMdh0:6666",
"6666*zLJAKSJJJPLJLSJKKKKkpd66667",
"66:dzVKKKKLJSPSJSJLSHHKKBMzpp966",
"9:dKTTJJJKKSJJLJPJLKKHKHKYDzds:6",
"6:BTDGKKSJKKLLJKSLJSKHKKDKIBdd6:",
"68AKKKGJKJSJSJSPJJJPHHHHKHKVfd44",
"66VYHGJKGGKKHHJKJJSKGGKGGKKCdq>6",
"8>kIKKKKKKKKKKKILLLLYYKKKTKf8468",
"66:kNBNNNNNNNBNNNNNNNNNNNNh>6666",
"666:,+5<>>44:%:53116%:51>>=86666",
"666qyx6786617y96666<ye6696yrq988",
"696rc[-ty2wr6]y7u6r,_bw7t6!R1r46",
"669+v}=906rt6|i,r6e1[R=9eX`( r86",
"669-i~<57,6<6`g,6qrX(b$5<O!R.q66",
"66696&68,/l-966w.^!.q0OnW%666766",
"666866uwO{nO966lO((.9r;!]Xq66667",
"867666w9+]c6t66woWR,rw#W(+j67666",
"666666666jrq96t,196ye2:yg2666676",
"866766666=666qwnmO762tr<,6666966",
"666666666q60i9 ^_.w0<tw796866666",
"67867676666679.^(2p6766677697666",
"666666666666662ii176666666666686"
};
